<svg width="24" height="24" viewBox="0 0 24 24" fill="none" xmlns="http://www.w3.org/2000/svg">
  <path d="M21.0078 1L13.0078 8L14.5078 4L21.0078 1Z" fill="#E17726" stroke="#E17726" stroke-width="0.25" stroke-linecap="round" stroke-linejoin="round"/>
  <path d="M2.99219 1L10.8922 8.1L9.49219 4L2.99219 1Z" fill="#E27625" stroke="#E27625" stroke-width="0.25" stroke-linecap="round" stroke-linejoin="round"/>
  <path d="M18.0078 16.9L15.8078 20.5L20.5078 21.9L21.9078 17L18.0078 16.9Z" fill="#E27625" stroke="#E27625" stroke-width="0.25" stroke-linecap="round" stroke-linejoin="round"/>
  <path d="M2.10156 17L3.50156 21.9L8.20156 20.5L6.00156 16.9L2.10156 17Z" fill="#E27625" stroke="#E27625" stroke-width="0.25" stroke-linecap="round" stroke-linejoin="round"/>
  <path d="M7.90234 10.7L6.60234 12.9L11.2023 13.1L11.0023 8L7.90234 10.7Z" fill="#E27625" stroke="#E27625" stroke-width="0.25" stroke-linecap="round" stroke-linejoin="round"/>
  <path d="M16.1016 10.7L12.9016 8L12.8016 13.1L17.4016 12.9L16.1016 10.7Z" fill="#E27625" stroke="#E27625" stroke-width="0.25" stroke-linecap="round" stroke-linejoin="round"/>
  <path d="M8.19922 20.5L10.8992 19L8.59922 17L8.19922 20.5Z" fill="#E27625" stroke="#E27625" stroke-width="0.25" stroke-linecap="round" stroke-linejoin="round"/>
  <path d="M13.0977 19L15.7977 20.5L15.3977 17L13.0977 19Z" fill="#E27625" stroke="#E27625" stroke-width="0.25" stroke-linecap="round" stroke-linejoin="round"/>
  <path d="M15.7977 20.5L13.0977 19L13.3977 21L13.3977 21.8L15.7977 20.5Z" fill="#D5BFB2" stroke="#D5BFB2" stroke-width="0.25" stroke-linecap="round" stroke-linejoin="round"/>
  <path d="M8.19922 20.5L10.5992 21.8V21L10.8992 19L8.19922 20.5Z" fill="#D5BFB2" stroke="#D5BFB2" stroke-width="0.25" stroke-linecap="round" stroke-linejoin="round"/>
  <path d="M10.6992 15.6L8.49922 14.8L10.0992 14L10.6992 15.6Z" fill="#233447" stroke="#233447" stroke-width="0.25" stroke-linecap="round" stroke-linejoin="round"/>
  <path d="M13.2969 15.6L13.8969 14L15.4969 14.8L13.2969 15.6Z" fill="#233447" stroke="#233447" stroke-width="0.25" stroke-linecap="round" stroke-linejoin="round"/>
  <path d="M8.19922 20.5L8.59922 16.9L6.00391 17L8.19922 20.5Z" fill="#CC6228" stroke="#CC6228" stroke-width="0.25" stroke-linecap="round" stroke-linejoin="round"/>
  <path d="M15.3984 16.9L15.7984 20.5L17.9984 17L15.3984 16.9Z" fill="#CC6228" stroke="#CC6228" stroke-width="0.25" stroke-linecap="round" stroke-linejoin="round"/>
  <path d="M17.3984 12.9L12.7984 13.1L13.2984 15.6L13.8984 14L15.4984 14.8L17.3984 12.9Z" fill="#CC6228" stroke="#CC6228" stroke-width="0.25" stroke-linecap="round" stroke-linejoin="round"/>
  <path d="M8.49922 14.8L10.0992 14L10.6992 15.6L11.1992 13.1L6.59922 12.9L8.49922 14.8Z" fill="#CC6228" stroke="#CC6228" stroke-width="0.25" stroke-linecap="round" stroke-linejoin="round"/>
  <path d="M6.59922 12.9L8.59922 17L8.49922 14.8L6.59922 12.9Z" fill="#E27525" stroke="#E27525" stroke-width="0.25" stroke-linecap="round" stroke-linejoin="round"/>
  <path d="M15.5 14.8L15.4 17L17.4 12.9L15.5 14.8Z" fill="#E27525" stroke="#E27525" stroke-width="0.25" stroke-linecap="round" stroke-linejoin="round"/>
  <path d="M11.2 13.1L10.7 15.6L11.3 18.6L11.4 14.6L11.2 13.1Z" fill="#E27525" stroke="#E27525" stroke-width="0.25" stroke-linecap="round" stroke-linejoin="round"/>
  <path d="M12.8016 13.1L12.6016 14.6L12.7016 18.6L13.3016 15.6L12.8016 13.1Z" fill="#E27525" stroke="#E27525" stroke-width="0.25" stroke-linecap="round" stroke-linejoin="round"/>
  <path d="M13.3016 15.6L12.7016 18.6L13.1016 19L15.4016 17L15.5016 14.8L13.3016 15.6Z" fill="#F5841F" stroke="#F5841F" stroke-width="0.25" stroke-linecap="round" stroke-linejoin="round"/>
  <path d="M8.5 14.8L8.6 17L10.9 19L11.3 18.6L10.7 15.6L8.5 14.8Z" fill="#F5841F" stroke="#F5841F" stroke-width="0.25" stroke-linecap="round" stroke-linejoin="round"/>
  <path d="M13.3984 21.8V21L13.0984 20.7H10.8984L10.5984 21V21.8L8.19844 20.5L9.29844 21.4L10.8984 22.5H13.0984L14.6984 21.4L15.7984 20.5L13.3984 21.8Z" fill="#C0AC9D" stroke="#C0AC9D" stroke-width="0.25" stroke-linecap="round" stroke-linejoin="round"/>
  <path d="M13.0977 19L12.6977 18.6H11.2977L10.8977 19L10.5977 21L10.8977 20.7H13.0977L13.3977 21L13.0977 19Z" fill="#161616" stroke="#161616" stroke-width="0.25" stroke-linecap="round" stroke-linejoin="round"/>
  <path d="M21.3984 8.1L22.0984 4.7L21.0984 1L13.0984 7.6L16.0984 10.7L20.3984 12L21.2984 10.9L20.8984 10.6L21.4984 10L20.9984 9.6L21.5984 9.1L21.3984 8.1Z" fill="#763E1A" stroke="#763E1A" stroke-width="0.25" stroke-linecap="round" stroke-linejoin="round"/>
  <path d="M1.89844 4.7L2.59844 8.1L2.39844 9.1L2.99844 9.6L2.49844 10L3.09844 10.6L2.69844 10.9L3.59844 12L7.89844 10.7L10.8984 7.6L2.89844 1L1.89844 4.7Z" fill="#763E1A" stroke="#763E1A" stroke-width="0.25" stroke-linecap="round" stroke-linejoin="round"/>
  <path d="M20.3984 12L16.0984 10.7L17.3984 12.9L15.3984 17L17.9984 17H21.8984L20.3984 12Z" fill="#F5841F" stroke="#F5841F" stroke-width="0.25" stroke-linecap="round" stroke-linejoin="round"/>
  <path d="M7.89844 10.7L3.59844 12L2.09844 17H5.99844L8.59844 17L6.59844 12.9L7.89844 10.7Z" fill="#F5841F" stroke="#F5841F" stroke-width="0.25" stroke-linecap="round" stroke-linejoin="round"/>
  <path d="M12.7984 13.1L13.0984 7.6L14.4984 4H9.49844L10.8984 7.6L11.1984 13.1L11.2984 14.6V18.6H12.6984V14.6L12.7984 13.1Z" fill="#F5841F" stroke="#F5841F" stroke-width="0.25" stroke-linecap="round" stroke-linejoin="round"/>
</svg>

